<?xml version="1.0" encoding="UTF-8" standalone="no"?>
<!DOCTYPE svg PUBLIC "-//W3C//DTD SVG 1.1//EN" "http://www.w3.org/Graphics/SVG/1.1/DTD/svg11.dtd">
<svg width="100%" height="100%" viewBox="0 0 600 600" version="1.1" xmlns="http://www.w3.org/2000/svg" xmlns:xlink="http://www.w3.org/1999/xlink" xml:space="preserve" xmlns:serif="http://www.serif.com/" style="fill-rule:evenodd;clip-rule:evenodd;stroke-linejoin:round;stroke-miterlimit:2;">
    <g id="AldiBear_original" transform="matrix(0.941997,0,0,0.941997,17.4008,17.4008)">
        <g id="fondo" transform="matrix(1.00278,0,0,0.988875,-16.5848,-12.0036)">
            <circle cx="315.707" cy="315.514" r="316.869" style="fill:rgb(139,173,227);fill-opacity:0.25;"/>
        </g>
        <path id="Path-0" serif:id="Path 0" d="M310,14.5C345.8,14.8 346.8,14.9 364,17.9C373.6,19.6 388.5,22.6 397,24.6C405.5,26.6 417.2,29.8 423,31.7C428.8,33.6 440.3,38.4 448.5,42.4C456.8,46.4 469.8,53.5 477.5,58.3C485.2,63 496.2,70.2 502,74.3C507.8,78.4 516.5,85.3 521.5,89.6C526.5,94 532,99.8 533.8,102.5C535.6,105.3 537.1,108.7 537,110.3C537,112 536,113.8 531.3,117.5L534.8,122C536.6,124.5 540.7,130.7 543.8,135.8C548.3,143.2 550,145.1 551.7,145C553.5,145 554.6,146.2 556.4,149.8C557.7,152.4 559.7,157.4 560.9,161C562.2,164.6 564.2,172.7 565.5,179C566.7,185.3 568.3,193.8 568.9,197.8C569.9,204.5 570.2,205 572.5,205C573.9,205 576.4,205.7 578,206.5C579.9,207.4 581.8,209.8 583.2,212.8C585.3,217.1 585.5,218.9 585.5,234C585.4,246.7 584.9,252.7 583.4,260C582.2,265.2 580.1,272.1 578.7,275.3C576.4,280.2 575.4,281.2 572.2,282.2C569.1,283.2 566.5,283.1 558,281.7C552.2,280.8 545.5,280 543,279.9C540.5,279.9 538,280.5 537.3,281.2C536.7,281.9 535.4,284.5 534.5,287C533.7,289.5 531.4,293.8 529.5,296.5C527.6,299.2 524.6,302.4 522.8,303.4C520.4,304.8 517.5,305.4 512.2,305.4C505.4,305.5 504.9,305.6 505.3,307.5C505.6,308.6 507.6,316.5 509.9,325C512.1,333.5 514.7,345 515.5,350.5C516.3,356.1 517,367.3 517,375.8C517,385.2 516.2,396.9 515,406.5C513.9,415 512.1,426.2 510.9,431.3C509.8,436.3 507.4,443.9 505.6,448C503.8,452.1 500.1,458.9 497.3,463C494.6,467.1 489.8,473.4 486.8,477C483.8,480.6 473,491.2 462.9,500.5C452.8,509.9 441.1,520.5 437,524.1C432.9,527.7 425,534.3 419.5,538.7C414,543.1 405.4,549.6 400.5,553.2C395.6,556.7 387,562.4 381.5,565.9C376,569.3 366.6,574.5 360.5,577.5C354.4,580.4 346.1,584 342,585.4C337.9,586.8 331.2,588.6 327.2,589.5C323.3,590.3 315.5,591 310,591C304.1,591 296,590.2 290.2,589C284.9,588 276.4,585.7 271.5,583.9C266.6,582.2 256.9,578.3 250,575.1C243.1,572 231.7,566.1 224.5,562.1C217.3,558 203.8,549.7 194.5,543.6C185.2,537.4 171.2,527.7 163.5,522.1C155.8,516.4 142.1,505.8 133,498.5C123.9,491.3 113.2,481.8 109.1,477.4C105.1,473.1 99.4,465.9 96.4,461.5C92.8,456.1 89.8,449.8 87.1,442C84.9,435.7 82.4,427.4 81.5,423.5C80.7,419.6 79.3,406.8 78.5,395C77.2,377.9 77.2,370.7 78,360C78.6,352.6 80.2,340.4 81.6,333C82.9,325.6 84.8,316.5 87.5,306.3L80.5,305.7C76,305.3 72.6,304.4 71,303.2C69.6,302.2 66.8,299.1 64.8,296.4C62.8,293.7 60.6,289.7 60,287.5C59.3,285.3 58.1,282.7 57.2,281.7C56.067,280.5 54.067,279.933 51.2,280C48.9,280 42.6,280.7 37.2,281.6C31.9,282.5 25.9,283 24,282.7C22.1,282.3 19.5,281 18.4,279.8C17.2,278.5 15.3,275 14.2,272C13.1,269 11.5,262.4 10.6,257.5C9.7,252.6 8.7,243.6 8.3,237.5C7.8,229 8.1,224.8 9.4,219C10.3,214.9 11.6,210.8 12.3,210C13,209.1 14.6,207.6 16,206.7C17.4,205.8 19.7,205 21.2,205C23.3,205 24.1,204.4 24.5,202.8C24.7,201.5 25.9,195.1 27.1,188.5C28.2,181.9 30,173.3 31,169.5C32,165.7 33.8,160 34.9,157C36,154 37.9,150 39,148.3C40.2,146.3 41.8,145 43,145C44.3,145 45.9,143.4 47.7,140.4C49.3,137.8 53.3,131.5 63,117L60,114C58.3,112.3 57,110.4 57,109.7C57,109.1 58.3,106.2 59.9,103.5C61.5,100.7 66.9,94.7 72.1,89.9C77.3,85.2 84.4,79.1 88,76.3C91.6,73.5 97.9,69.1 102,66.5C106.1,63.8 115.1,58.8 122,55.4C128.9,52 139,47.3 144.5,45C150,42.6 161.5,38.1 170,34.8C178.5,31.5 190.7,27.3 197,25.4C203.3,23.5 214.3,20.8 221.5,19.5C228.6,18.2 240.8,16.6 248.5,16C256.2,15.4 265,14.8 268,14.6C271,14.4 289.9,14.4 310,14.5ZM235.5,47.5C228.9,48.3 215.6,51 206,53.4C196.4,55.9 183.8,59.5 178,61.5C172.2,63.6 164.3,66.8 160.5,68.7C156.6,70.7 151,73.9 148,76C145,78.1 139.3,82.3 135.5,85.4L128.5,91.1C139.3,91 145.4,91.5 149,92C152.6,92.6 159.1,94.2 163.5,95.7C167.9,97.1 173.5,99.3 176,100.5C178.5,101.7 184.8,106.6 190,111.2C195.2,115.8 201.7,122.2 204.5,125.4L209.5,131.2C216.5,128.7 227.3,125.5 238,122.5C248.7,119.5 262.2,116.3 268,115.4C274.3,114.4 285,113.8 295,113.8C306.5,113.8 318.5,114.6 334.5,116.4C347.1,117.9 361.8,119.9 367,121C372.2,122.1 379.2,123.7 382.4,124.7L388.3,126.5C402.4,112.8 408.7,107.1 411.5,105C414.2,102.8 419.9,99.8 424,98.1C428.1,96.5 434.4,94.4 438,93.4C442.3,92.3 448.4,91.6 455.8,91.6L467.2,91.5C458.1,82.9 452.8,78.6 449.5,76.4C446.2,74.1 440.1,70.6 436,68.5C431.9,66.4 424,63 418.5,61C413,58.9 403.8,56.1 398,54.6C392.2,53.2 381.4,51.1 374,50C366.6,49 352.9,47.4 343.5,46.6C334.1,45.8 318.2,44.9 308,44.6C297.8,44.4 280.1,44.6 268.5,45.1C256.9,45.6 242.1,46.6 235.5,47.5Z" style="fill:rgb(6,5,4);fill-opacity:0.96;"/>
        <path id="Path-1" serif:id="Path 1" d="M84,399C85.1,399 88.5,400.2 91.6,401.8C94.8,403.3 104.3,409.3 112.9,415.2C121.5,421.1 135.1,430.4 143.3,435.9C151.4,441.5 158.2,446 158.5,446C158.8,446 165.6,449.9 173.8,454.7C181.9,459.5 194.6,466.7 202,470.8C209.4,474.8 221.1,480.8 228,484C234.9,487.2 244.6,491.2 249.5,492.8C254.4,494.5 262.6,496.6 267.5,497.6C274.4,499 281.1,499.4 296,499.4C306.7,499.4 319.1,498.8 323.5,498.1C327.9,497.4 335.6,495.8 340.5,494.5C345.4,493.3 353.6,490.5 358.5,488.5C363.4,486.5 374,481.2 382,476.8C390,472.4 404.6,464 414.5,458.2C424.4,452.4 434.7,446.3 437.5,444.6C440.2,442.9 446.8,438.6 452,435.1C457.2,431.5 469.1,423.5 478.5,417.2C487.9,410.8 498.6,404.2 502.5,402.3C506.4,400.5 510.4,399 511.5,399C513.4,399 513.5,399.4 512.7,406.2C512.2,410.2 511,417.6 510,422.5C509,427.4 507.1,434.6 505.9,438.5C504.7,442.4 502.3,448.4 500.5,452C498.7,455.6 495.7,460.6 493.8,463.2C492,465.7 485.8,473 480,479.4C474.2,485.9 463.2,496.9 455.5,503.9C447.8,511 438.1,519.7 434,523.2C429.9,526.8 421.3,533.9 415,539C408.7,544 397,552.5 389,557.9C381,563.2 370,569.9 364.5,572.7C359,575.5 351.1,579.2 347,580.8C342.9,582.4 335.4,584.8 330.5,586.1C323.5,587.9 318.9,588.4 309.5,588.4C299.9,588.3 295.3,587.8 286.5,585.6C280.4,584.1 270.3,580.9 264,578.4C257.7,575.9 246.2,570.6 238.5,566.6C230.8,562.6 219.1,556.1 212.5,552.1C205.9,548 194.2,540.5 186.5,535.2C178.8,530 165.5,520.4 157,513.9C148.5,507.5 139.9,500.6 138,498.5C136.1,496.5 131.8,493 128.5,490.7C125.2,488.5 118.6,482.8 113.9,478.1C109.2,473.4 103.1,466.1 100.3,462C97.6,457.9 94.1,452.1 92.6,449.3C91.2,446.4 88.9,439.6 87.5,434.3C86.2,428.9 84.4,420.2 83.5,415C82.7,409.8 82,404 82,402.3C82,399.7 82.4,399 84,399ZM295,497.3C299.7,497.3 301.5,497.5 299,497.7C296.5,497.9 292.7,497.9 290.5,497.7C288.3,497.5 290.3,497.3 295,497.3ZM151.7,402.5C151.9,405.3 151.9,410.2 151.7,413.5C151.5,416.8 151.4,414.6 151.4,408.5C151.4,402.4 151.5,399.7 151.7,402.5ZM514.7,369C514.9,372 514.9,377.2 514.7,380.5C514.5,383.8 514.4,381.3 514.4,375C514.4,368.7 514.5,366 514.7,369Z" style="fill:rgb(60,32,26);"/>
        <path id="Path-2" serif:id="Path 2" d="M276,324.1C271.3,324.6 267.5,325.1 267.5,325.2C267.5,325.4 265.8,328.9 263.8,333C261,338.7 258.3,342.3 252.6,347.7C246.7,353.4 243.8,355.4 239.7,356.6C235.9,357.8 228.8,358.3 212.5,358.7C200.4,358.9 186.9,358.7 182.5,358.2L174.5,357.3C166.6,365.2 162.9,370 161.2,373C159.4,376 157.2,381 156.3,384C154.8,388.5 154.5,393.2 154.6,410.5C154.6,428.6 154.9,432.2 156.6,436.9L158.5,442.3C194.2,463.1 212.6,473.2 222.5,478C232.4,482.9 244.6,488.2 249.5,489.9C254.4,491.5 262.3,493.7 267,494.7C273.7,496.1 279.9,496.5 296.5,496.4C312,496.4 320.1,495.9 327.5,494.6C333,493.6 342,491.4 347.5,489.5C353,487.7 361.3,484.3 366,482C370.7,479.7 381.3,473.9 389.5,469.3C397.8,464.6 410.6,457.2 418,452.7C425.4,448.3 432.3,444 433.3,443.1C434.2,442.2 435.9,438.1 437,434C438,429.9 439.4,422.2 440.1,417C440.7,411.8 441,403.9 440.7,399.5C440.3,395.1 439.4,388.8 438.5,385.5C437.7,382.2 435.4,376.3 433.5,372.5C431.7,368.6 428.2,363.6 425.8,361.3L421.5,357.1C409.9,358.5 398.2,358.9 388,358.9C377.8,358.9 366.1,358.5 362,357.9C357.9,357.4 352.9,356.2 351,355.3C349.1,354.4 344.3,350.4 340.5,346.6C336.3,342.4 332.2,337.1 330.5,333.6C328.8,330.3 327.1,327.6 326.5,327.4C325.9,327.2 320.8,326.4 315,325.6C309.2,324.8 300,324 294.5,323.7C289,323.4 280.7,323.6 276,324.1Z" style="fill:rgb(244,233,191);fill-rule:nonzero;"/>
        <path id="Path-3" serif:id="Path 3" d="M283,341.1C277.1,341.7 271.1,343.1 267,344.7C263.4,346.1 258.6,348.6 256.2,350.1C253.9,351.7 250.8,354.7 249.3,356.7C247.1,359.6 246.5,361.4 246.5,365.4C246.5,369.9 247.1,371.4 251.1,377C253.6,380.6 258.5,386.1 261.9,389.2C265.9,393.1 271.1,396.5 277.3,399.5C282.3,402 288.2,404.3 290.3,404.8C292.3,405.2 293.9,405.7 293.8,406C293.6,406.3 291.3,408.6 288.5,411.2C285.7,413.8 281,417 278,418.4C275,419.8 268.7,422 264,423.4C259.3,424.7 252.6,426.1 249,426.5C245.4,426.9 240,427.8 237,428.6C234,429.4 230.7,430.8 229.6,431.8C228.6,432.7 226.8,435.5 225.5,438C224.2,440.5 222.2,445.6 221,449.5C219.9,453.4 219,457.8 219.2,459.5C219.4,461.8 220,462.6 222,462.8C223.4,463 227.5,461.6 231.5,459.5C235.3,457.5 241.9,454.5 246,452.8C250.1,451.1 257.3,448.5 262,446.9C266.7,445.3 274.1,443.5 278.5,442.9C282.9,442.3 287.7,441.2 289.3,440.4C290.8,439.6 293.2,437.4 294.7,435.5C296.3,433.5 297.9,432 298.5,432C299.1,432.1 300.9,434 302.5,436.3C304.3,438.8 306.9,440.9 309,441.6C310.9,442.3 318.6,443.7 326,444.9C333.4,446 344.1,448.3 349.8,450C355.4,451.6 364.5,455.2 370,458C375.5,460.7 381.1,463 382.5,463C384.3,463 385,462.5 385,461C385,459.9 381.7,454.2 377.8,448.2C373.8,442.3 368.3,435.1 365.5,432.3C365.5,432.3 362.128,427.928 359.636,427.376C354.136,426.16 337.9,426.4 332.5,425C328.1,423.8 322,421.6 319,420C315.3,418 311.9,415.1 308.7,411C304.7,405.9 304.2,404.9 305.8,404.4C306.7,404 310.6,402.4 314.5,400.7C318.4,399.1 323.3,396.5 325.5,395C327.7,393.5 332.8,388.7 336.8,384.4C341,379.9 345.3,374.1 346.7,371C349.2,365.7 349.2,365.4 347.7,361.5C346.8,359.3 343.9,355.5 341.3,353C338.7,350.6 333.7,347.3 330.3,345.8C326.8,344.3 321.2,342.6 317.8,342.1C314.3,341.6 307.2,340.9 302,340.7C296.8,340.4 288.2,340.6 283,341.1Z" style="fill:rgb(6,5,4);fill-opacity:0.96;fill-rule:nonzero;"/>
        <path id="Path-4" serif:id="Path 4" d="M292.8,410.5C289.9,413 285.5,416.4 283,418C280.5,419.7 274.4,422.4 269.5,424C264.6,425.5 257.4,427.3 253.5,428C249.6,428.6 243.8,429.5 240.5,430.1C237.2,430.7 233.5,431.8 232.2,432.6C231,433.4 228.9,436.1 227.6,438.8C226.3,441.4 224.3,446.6 223.1,450.5C221.9,454.4 221,458.3 221,459.3C221,460.2 221.7,461 222.5,461C223.3,461 228.4,458.8 233.7,456.1C239.1,453.4 249.1,449.1 256,446.7C262.9,444.2 272.3,441.6 277,441C281.7,440.3 286.6,439.2 288,438.5C289.4,437.8 291.7,435.6 293.2,433.6C295.1,431.2 296.8,430 298.5,430C300.3,430 301.6,431 303.2,433.7C304.5,435.7 306.4,437.9 307.5,438.6C308.6,439.3 314,440.6 319.5,441.4C325,442.2 332.9,443.6 337,444.5C341.1,445.4 347.6,447 351.5,448.1C355.4,449.2 363.8,452.7 370.3,455.8C376.7,458.9 382.3,461.3 382.6,461C382.8,460.7 379.8,455.6 375.8,449.5C371.8,443.4 366.5,436.4 364,433.8C364,433.8 361.463,429.737 359.351,429.299C353.884,428.166 336.3,428.4 331.2,427C327.3,425.9 321.9,423.9 319.2,422.6C316.6,421.2 313.3,419.1 311.9,417.8C310.5,416.5 307.7,413.4 305.7,410.7C303.5,408 301.2,406 300,406C299,406 295.7,408 292.8,410.5Z" style="fill:rgb(60,32,26);fill-rule:nonzero;"/>
        <path id="Path-5" serif:id="Path 5" d="M285.5,343.6C283.9,343.8 279.8,344.5 276.5,345.1C273.2,345.7 268,347.5 265,349C262,350.5 257.3,354 254.7,356.6C252,359.3 249.6,362.6 249.3,364C248.9,365.7 249.7,368.3 251.6,372C253.2,375 257.5,380.4 261.1,384C264.7,387.6 270.3,392.1 273.6,394C276.8,395.9 282,398.3 285,399.3C288,400.3 292.8,401.4 295.5,401.7C299.2,402 302.6,401.5 308.5,399.6C313.5,398 319.1,395.3 323.5,392.2C327.4,389.5 332.8,384.8 335.5,381.8C338.3,378.7 341.8,373.8 343.4,370.9C346,366 346.1,365.3 344.9,362.6C344.1,361 341.7,358.1 339.5,356.1C337.3,354 333.5,351.2 331,349.7C328.5,348.3 323.6,346.4 320,345.5C316.4,344.7 307.9,343.8 301,343.6C294.1,343.3 287.1,343.3 285.5,343.6Z" style="fill:rgb(183,166,182);fill-rule:nonzero;"/>
        <path id="Path-6" serif:id="Path 6" d="M285.2,285.2C281,286.8 278.8,288.2 278.4,289.5C278,290.6 277.2,292.2 276.4,293C275.7,293.8 273.7,300.2 272.1,307.3C270.4,314.3 269,320.3 269,320.8C269,321.2 276.3,321.3 285.2,321.2C296.4,320.9 305.3,321.3 313.5,322.4C320.1,323.3 325.6,323.9 325.8,323.8C326,323.6 325,318.6 323.6,312.5C322.1,306.5 320.4,299.5 319.7,297.1C319.1,294.7 317.9,292.2 317.2,291.6C316.5,291 315.9,289.6 316,288.5C316,287 315,286.2 311.8,285.2C309.4,284.4 303.9,283.6 299.5,283.4C293,283.1 290.3,283.4 285.2,285.2ZM488.6,281.5C487.9,283.4 487.3,285.4 487.2,286C487.1,286.5 486.4,288.1 485.8,289.6C484.9,291.2 483.2,292.4 480.8,293.1C477.5,293.9 476.9,294.5 476,297.8C475.5,299.8 475,302.3 475,303.3C475,304.2 473.6,310.7 471.9,317.8C470.2,324.8 467.7,332.9 466.2,335.9C464.7,338.9 461.5,343.1 459,345.2C456.5,347.4 452.3,350.2 449.5,351.6C446.5,353.1 440.8,354.5 435.4,355.3L426.3,356.5C432.1,363.5 435,368 436.5,371C438,374 440.2,379.9 441.3,384C442.9,389.8 443.3,394.5 443.3,405C443.3,414.8 442.7,421.4 441.1,429C439.9,434.8 439.1,439.6 439.2,439.7C439.4,439.9 446.3,435.4 454.5,429.8C462.8,424.2 474.9,416 481.5,411.6C488.2,407.1 496.7,401.9 500.5,400C504.4,398.1 509,396.5 510.7,396.5L514,396.5C514,367.4 513.5,355.5 512.9,351.3C512.3,347 509.9,335.9 507.5,326.5C505.1,317.1 500.9,302.4 498.1,293.8C494.4,282.4 492.6,278 491.5,278C490.6,278 489.3,279.6 488.6,281.5ZM99.1,279.7C98.5,281.8 97.1,287.3 96,292C94.9,296.7 93.3,301.2 92.5,302C91.7,302.8 89.8,308.9 88.2,315.5C86.6,322.1 84.5,331.8 83.6,337C82.7,342.2 81.6,350.8 81,356C80.5,361.2 80,368.9 80,373C80,377.1 80.3,383.9 80.7,388.2L81.5,395.8C87.7,396.7 92.9,398.9 97,401.3C101.1,403.8 110.4,409.8 117.5,414.8C124.7,419.8 135.6,427.4 141.7,431.7C147.9,436 153.2,439.3 153.4,439C153.7,438.7 153.4,436.5 152.8,434C152.2,431.5 151.7,420.7 151.6,410C151.6,394.4 151.9,389.3 153.3,384.3C154.2,380.8 156.2,375.6 157.7,372.8C159.1,369.9 162.5,365.1 165.2,362.3C169.7,357.3 169.9,357 167.8,356.6C166.5,356.3 162.1,355.7 158,355.1C153.7,354.4 147.9,352.7 144.5,351C141.2,349.4 136.5,346.2 134.1,343.8C131.6,341.4 128.6,337.3 127.4,334.5C126.2,331.8 123.8,323.4 122.1,316C120.5,308.6 118.9,300.8 118.6,298.8C118.1,295.9 117.4,294.7 115.3,293.9C113.7,293.3 111.8,292.5 111,292C110.2,291.6 108.6,288.9 107.5,285.9C106.4,282.9 105.2,279.9 104.8,279.2C104.3,278.6 103.1,277.5 102.1,277C100.4,276.1 100,276.4 99.1,279.7Z" style="fill:rgb(183,166,113);fill-rule:nonzero;"/>
        <path id="Path-7" serif:id="Path 7" d="M285.9,267.3C282.7,267.9 279.8,268.9 279.4,269.3C278.9,269.8 278.5,272 278.5,274.3C278.6,276.6 278.9,279.7 279.3,281.2C279.8,283.3 280.4,283.8 281.8,283.4C282.7,283 286,282 289,281.2C293.5,280 296.1,279.9 303,280.8C307.7,281.4 312.5,282.1 313.8,282.4C315.7,282.9 316.1,282.5 316.6,279.2C316.9,277.2 316.9,274 316.6,272.2C316.2,270.3 315.1,268.5 313.8,267.8C312.5,267.2 307,266.5 301.5,266.4C296,266.2 289,266.6 285.9,267.3Z" style="fill:rgb(21,198,234);fill-rule:nonzero;"/>
        <path id="Path-8" serif:id="Path 8" d="M295.5,263.7C297.1,263.9 300.3,263.9 302.5,263.7C304.7,263.5 303.4,263.3 299.5,263.3C295.6,263.3 293.9,263.5 295.5,263.7Z" style="fill:rgb(60,32,26);fill-rule:nonzero;"/>
        <path id="Path-9" serif:id="Path 9" d="M398.5,233.1C393.6,233.5 386.4,234.1 382.5,234.4C378.6,234.8 370.8,235.8 365,236.6C359.2,237.5 350.9,239.3 346.5,240.7C342.1,242.1 336.9,244.2 335,245.3C333.1,246.4 329.6,248.8 327.2,250.7C324.9,252.5 322.4,255.2 321.6,256.8C320.8,258.5 320,265 319.6,274.3C319.1,286.2 319.3,289.4 320.4,291.3C321.2,292.5 323.5,300.3 325.5,308.5C327.6,317.4 330.4,326.4 332.4,330.5C334.5,334.9 338.2,340 342.1,344.1C345.6,347.7 349.9,351.4 351.5,352.3C353.1,353.1 357.6,354.4 361.5,355C365.4,355.7 376.8,356.2 387,356.2C398.2,356.2 411.1,355.6 419.5,354.6C427.2,353.7 436,352.4 439,351.8C442,351.3 446.3,349.9 448.5,348.7C450.7,347.6 454.3,345.3 456.5,343.5C458.7,341.7 461.7,338 463.2,335.4C464.6,332.7 467,326 468.4,320.5C469.7,315 471.6,306.7 472.5,302C473.4,297.3 474.6,292.9 475.3,292.2C476,291.5 477.2,291 478,291C478.8,291 480.4,290.3 481.6,289.3C482.8,288.3 484.2,285.6 484.9,283.3C485.6,280.6 487.5,277.5 490,275L494,271C492.8,250.7 492.2,247.1 491.1,245.9C490.2,245.1 487.1,244.1 484.3,243.7C481.4,243.3 478.2,242.5 477.3,242C476.3,241.4 469.4,239.4 462,237.6C454.6,235.7 445,233.7 440.7,233.1C436.5,232.5 427.3,232.1 420.3,232.2C413.2,232.2 403.4,232.6 398.5,233.1Z" style="fill:rgb(21,198,234);fill-rule:nonzero;"/>
        <path id="Path-10" serif:id="Path 10" d="M380.5,249C375.6,249.5 367.2,250.9 362,252.2C356,253.6 349.7,255.9 345.1,258.4C341,260.7 336.6,263.9 335.3,265.5C334.1,267.1 332.4,270.5 331.6,273C330.8,275.5 329.7,281.9 329.1,287.3C328.2,295.2 328.3,298.3 329.5,303.7C330.3,307.5 331.9,313.4 333.1,317C334.2,320.6 336.4,326 337.8,329C339.3,332 342.8,336.9 345.6,340C348.7,343.3 352.6,346.4 355.6,347.7C358.3,348.9 363.4,350.3 367,350.9C370.6,351.5 379.4,352 386.5,352C393.6,352 405.8,351.5 413.5,351C421.2,350.4 430.2,349.2 433.5,348.4C436.8,347.6 441.3,345.9 443.5,344.6C445.7,343.3 449,340.7 450.9,338.9C452.8,337 456.1,331.9 458.2,327.5C460.3,323 463.2,314.5 464.7,308C466.8,299 467.4,293.9 467.4,284.5C467.5,273.6 467.3,272 464.9,267C463.5,264 460.7,260 458.7,258.2C456.6,256.5 452.7,254.3 449.7,253.5C446.9,252.7 440.4,251.3 435.5,250.5C430.4,249.6 418.6,248.7 408,248.5C397.8,248.3 385.4,248.5 380.5,249Z" style="fill:rgb(6,5,4);fill-opacity:0.96;fill-rule:nonzero;"/>
        <path id="Path-12" serif:id="Path 12" d="M342.1,330.7C342.1,331.1 343.3,333.1 344.8,335C346.3,336.9 348.6,339.5 350,340.8C351.4,342.1 355,344.4 358,345.8C363.2,348.3 364.5,348.5 381,348.8C390.6,349 400.3,349 402.5,348.8C406.4,348.5 406.3,348.4 397,344.8C391.8,342.8 383.4,340 378.5,338.6C373.5,337.3 364.1,335 357.5,333.5C350.9,332 344.8,330.6 343.8,330.3C342.9,330.1 342.2,330.2 342.1,330.7Z" style="fill:rgb(244,233,191);fill-rule:nonzero;"/>
        <path id="Path-13" serif:id="Path 13" d="M434.5,261.7C438.9,261.9 445.9,261.9 450,261.7C454.1,261.6 450.5,261.4 442,261.4C433.5,261.4 430.1,261.6 434.5,261.7Z" style="fill:rgb(60,32,26);fill-rule:nonzero;"/>
        <path id="Path-14" serif:id="Path 14" d="M347.5,260.1C344.2,261.8 340.4,264.2 339.2,265.4C337.9,266.5 336.1,268.9 335.3,270.5C334.4,272.1 333.1,276.9 332.4,281C331.7,285.1 331.1,291.2 331.1,294.5C331,297.8 331.7,303.2 332.5,306.5C333.4,309.8 335.2,315.6 336.5,319.5L339,326.5C363.4,331.7 375.9,334.7 382.5,336.6C389.1,338.5 398.1,341.7 402.5,343.7C406.9,345.7 412.7,347.5 415.5,347.8C418.3,348 423.6,347.7 427.5,347.1C431.4,346.5 436.8,344.9 439.5,343.7C442.3,342.4 446.1,340 448,338.3C449.9,336.6 452.9,332.6 454.7,329.4C456.4,326.2 459,319.7 460.3,315C461.7,310.3 463.6,301.3 464.5,295C466,285.4 466,282.4 465,277C464.4,273.4 462.8,268.5 461.4,266L459,261.5C446.2,262 429.9,261.7 414.5,261C399.1,260.4 382,259.5 376.5,259C371,258.5 363.6,257.9 360,257.5C354.1,257 353,257.3 347.5,260.1Z" style="fill:rgb(183,166,113);fill-rule:nonzero;"/>
        <path id="Path-15" serif:id="Path 15" d="M343.4,270.3C343.1,270.9 344,275.9 345.4,281.2C346.8,286.6 348.8,292.7 349.9,294.7C350.9,296.8 354.2,300.7 357.1,303.4C360.1,306 364.5,309.3 367,310.5C369.5,311.8 374.2,313.5 377.5,314.4C380.8,315.2 389.1,316.7 396,317.5C402.9,318.4 413.5,319.2 419.5,319.3C427.7,319.4 431.8,319 435.5,317.8C438.3,316.8 441.9,315 443.7,313.8C445.4,312.5 448.7,309 450.9,306C453.2,303 455.8,298.2 456.7,295.5C457.8,292.3 458.4,287.2 458.5,281.5C458.5,276.6 458.2,271.7 457.8,270.7C457,269.1 453.4,269 400.5,269C356.2,269 343.8,269.3 343.4,270.2L343.4,270.3Z" style="fill:rgb(6,5,4);fill-opacity:0.96;fill-rule:nonzero;"/>
        <path id="Path-16" serif:id="Path 16" d="M381.2,275.5C380.6,276.9 380.2,280 380.1,282.3C380.1,284.6 380.9,288.3 381.9,290.5C383,292.7 385.9,296.4 388.4,298.8C390.9,301.1 394.9,304 397.3,305.1C400.6,306.8 402.8,307.2 408,306.8C412.8,306.5 415.5,305.8 418.2,304C420.2,302.6 423.2,299.7 424.7,297.5C427.2,293.9 427.5,292.7 427.5,285.3C427.5,278.7 427.1,276.7 425.7,275.3C424.1,273.7 421.5,273.5 403,273.2L382.1,272.8L381.2,275.5Z" style="fill:rgb(183,154,42);fill-rule:nonzero;"/>
        <path id="Path-17" serif:id="Path 17" d="M352.8,271.7L346,272C347,277.8 348.1,282.2 349.1,285.5C350.1,288.8 352.4,293.7 354.2,296.4C356,299.1 359.5,302.8 362,304.6C364.5,306.3 368.7,308.7 371.5,309.8C374.2,310.9 379.9,312.5 384,313.3C388.1,314.2 397.6,315.4 405,316.1C412.4,316.7 421.9,317 426,316.8C431.2,316.4 435.1,315.5 438.5,313.8C441.4,312.4 445.2,309.3 447.6,306.4C449.8,303.7 452.6,298.9 453.8,295.8C455.5,291.4 456,287.8 456,281.3L456,271.786C441.425,271.245 434.4,271 430.5,271.1C425.9,271.1 424.2,271.4 425.5,271.9C426.6,272.4 428.2,273.5 429,274.5C430.1,275.8 430.5,278.7 430.5,285C430.5,292.9 430.2,294.1 427.4,298.6C425.6,301.6 422.6,304.6 419.5,306.5C415.2,309.1 413.7,309.5 407.1,309.5C401.5,309.5 398.5,309 395.5,307.5C393.4,306.4 389.4,303.5 386.7,301C384,298.5 380.8,294.7 379.7,292.5C378.2,289.5 377.8,286.7 377.9,281C378,276.6 378.5,273 379.3,272.2C380.3,271.1 378.6,271 370,271.2C364.2,271.3 356.5,271.5 352.7,271.7L352.8,271.7Z" style="fill:rgb(171,178,176);fill-rule:nonzero;"/>
        <path id="Path-20" serif:id="Path 20" d="M374.5,252.1C370.6,252.6 366.1,253.4 364.5,253.9C361.8,254.6 362.1,254.8 367.5,255.4C370.8,255.7 379.6,256.5 387,257C394.4,257.6 413.1,258.2 428.5,258.5C454.9,259 456.3,258.9 453,257.4C451.1,256.5 445.4,254.9 440.5,253.8C433.1,252.1 427,251.7 406.5,251.5C392.7,251.3 378.4,251.6 374.5,252.1Z" style="fill:rgb(60,32,26);fill-rule:nonzero;"/>
        <path id="Path-21" serif:id="Path 21" d="M152.5,233.1C149.2,233.6 139.7,235.8 131.5,238C123.2,240.3 113.6,242.7 110,243.5C106.4,244.3 103.2,245.3 102.8,245.7C102.4,246.1 101.7,251.7 101.2,258C100.6,264.3 100.5,270.4 101,271.5C101.4,272.6 103.2,274.5 104.9,275.8C107.1,277.3 108.5,279.7 109.8,283.8C111.4,288.6 112.1,289.7 114.7,290.5C116.3,291.1 118.3,292 119.1,292.6C119.9,293.3 121.1,297.1 121.8,301.1C122.5,305.2 124.3,313.2 125.7,319C127.1,324.8 129.3,331.5 130.5,334C131.7,336.5 135.2,340.7 138.1,343.3C141.1,346 145.7,349 148.5,350C151.2,351 159.1,352.5 166,353.4C172.9,354.3 184.9,355.5 192.8,356C202.1,356.7 211.7,356.7 220.7,356C228.3,355.5 235.8,354.6 237.5,354.2C239.2,353.7 241.8,352.6 243.5,351.7C245.2,350.9 248.8,347.8 251.7,344.8C254.5,341.9 258.2,337.3 259.9,334.5C261.7,331.8 264,326.6 265.1,323C266.2,319.4 268.2,311.6 269.6,305.5C271,299.4 272.9,293.1 273.9,291.5C275.5,288.8 275.6,287 275,274C274.6,266 273.8,258.6 273.3,257.5C272.7,256.4 270.1,253.6 267.4,251.2C264.7,248.8 259.6,245.5 256,243.8C252.4,242.1 245,239.7 239.5,238.5C234,237.2 226.6,235.9 223,235.6C219.4,235.2 214.5,234.7 212,234.5C209.5,234.2 201.9,233.6 195,233C188.1,232.5 177.1,232.1 170.5,232.2C163.9,232.2 155.8,232.6 152.5,233.1Z" style="fill:rgb(21,198,234);fill-rule:nonzero;"/>
        <path id="Path-22" serif:id="Path 22" d="M169.5,249C165.1,249.5 157,250.9 151.5,252C145.3,253.3 140.1,255 137.7,256.5C135.7,257.9 132.9,260.9 131.5,263.3C130.2,265.6 128.3,270.4 127.4,274C126.2,278.8 125.9,282.4 126.4,288C126.8,292.1 128.2,300.4 129.4,306.5C130.7,312.6 133.1,320.9 134.8,325C136.5,329.1 139.7,334.5 141.8,337C144,339.5 148.1,342.8 151.1,344.4C154.1,346 158.7,347.9 161.5,348.6C164.2,349.4 173.9,350.5 183,351.1C192.1,351.7 206.3,352 214.5,351.7C224.9,351.4 231,350.7 234.5,349.5C237.2,348.5 241.3,346.5 243.5,344.9C245.7,343.3 249.1,339.9 251.1,337.3C253.1,334.6 255.9,330.3 257.3,327.5C258.7,324.8 261.1,318.4 262.6,313.5C264.8,306.2 265.4,302.5 265.4,294C265.4,287.4 264.8,280.9 263.7,276.5C262.5,271.7 260.9,268.3 258.6,265.5C256.8,263.3 253.1,260.4 250.4,259.1C247.7,257.8 244.8,256.2 244,255.5C243.2,254.9 239.3,253.6 235.5,252.7C231.7,251.8 225.6,250.5 222,250C218.4,249.4 206.9,248.7 196.5,248.5C186.1,248.3 173.9,248.5 169.5,249Z" style="fill:rgb(6,5,4);fill-opacity:0.96;fill-rule:nonzero;"/>
        <path id="Path-24" serif:id="Path 24" d="M237.5,331.5C229.8,333.3 218.1,336.7 211.5,339C204.9,341.3 197,344.5 194,346.1L188.5,349C226.9,348.4 231.4,348 235.5,346.5C238.7,345.3 242.3,342.8 245.5,339.5C248.3,336.7 251.2,333 252,331.2C252.9,329.4 253.1,328 252.5,328.1C252,328.1 245.2,329.7 237.5,331.5Z" style="fill:rgb(244,233,191);fill-rule:nonzero;"/>
        <path id="Path-25" serif:id="Path 25" d="M145.5,261.7C149.9,261.9 156.7,261.9 160.5,261.7C164.3,261.6 160.8,261.4 152.5,261.4C144.2,261.4 141.1,261.6 145.5,261.7Z" style="fill:rgb(60,32,26);fill-rule:nonzero;"/>
        <path id="Path-26" serif:id="Path 26" d="M228,258C224.4,258.4 213.6,259.3 204,259.9C194.4,260.5 175,261.3 161,261.5L135.5,262C130.2,271.5 129.5,274 129.2,280.5C129,284.9 129.3,291.9 129.9,296C130.6,300.1 132.2,307.7 133.6,312.8C134.9,317.8 137.3,324.7 139,328C140.7,331.3 143.6,335.6 145.5,337.5C147.4,339.4 150.9,342 153.2,343.1C155.6,344.3 160.4,345.8 164,346.6C167.6,347.3 173.2,348 176.5,348.1C181.7,348.2 183.7,347.6 192,343.7C197.2,341.1 206.9,337.3 213.5,335.2C220.1,333 232.2,329.7 240.4,327.9C251.8,325.3 255.6,324 256.6,322.5C257.3,321.4 259,316.4 260.5,311.5C262.3,304.9 263,300.2 263,294C263,289.3 262.3,282.4 261.5,278.5C260.6,274.6 258.9,269.8 257.5,267.7C255.7,265.1 253,263 247.7,260.5C243.7,258.5 239.2,257 237.5,257.1C235.8,257.2 231.6,257.6 228,258Z" style="fill:rgb(183,166,113);fill-rule:nonzero;"/>
        <path id="Path-27" serif:id="Path 27" d="M136.2,270.5C135.8,271.3 135.8,276.9 136,282.8C136.5,292.1 136.9,294.3 139.5,299.5C141.1,302.8 144.7,307.8 147.5,310.6C151.2,314.3 154,316.1 158.5,317.5C163.1,319 166.9,319.4 175,319.3C180.8,319.2 191.4,318.4 198.5,317.6C205.7,316.7 215.1,314.9 219.5,313.5C223.9,312.1 229.3,309.7 231.5,308.3C233.7,306.8 237.2,303.8 239.3,301.6C241.4,299.3 243.8,296.3 244.6,294.8C245.4,293.2 247.1,287.8 248.5,282.7C249.9,277.7 251,272.5 251,271.2L251,269C144.1,269 136.9,269.2 136.2,270.5Z" style="fill:rgb(6,5,4);fill-opacity:0.96;fill-rule:nonzero;"/>
        <path id="Path-28" serif:id="Path 28" d="M171,274.3C168.733,275.1 167.367,276.333 166.9,278C166.5,279.4 166.2,282.6 166.1,285.2C166,287.9 166.7,291.7 167.6,293.7C168.4,295.8 170.3,298.8 171.8,300.3C173.3,301.9 176.2,304 178.2,305.1C180.7,306.3 184,307 187.7,307C191.7,307 194.9,306.2 197.9,304.7C200.3,303.5 204.1,300.7 206.3,298.5C208.5,296.3 211.1,293.1 212.1,291.5C213.4,289.4 214,286.5 214,282C214,278.1 213.5,275 212.8,274.2C211.8,273.3 206.7,273 193,273C181.5,273.1 173.2,273.6 171,274.3Z" style="fill:rgb(183,154,42);fill-rule:nonzero;"/>
        <path id="Path-30" serif:id="Path 30" d="M144.5,271.7L137.5,272.1C138.5,287.5 139.5,293.4 140.6,296C141.5,298.5 143.9,302.5 145.8,305C147.7,307.5 150.6,310.5 152.4,311.8C154.1,313 157.7,314.7 160.5,315.5C163.3,316.4 168.8,317 172.8,317C176.7,317 186.6,316.3 194.7,315.5C202.9,314.6 212.2,313.2 215.5,312.3C218.8,311.4 223.5,309.7 226,308.4C228.5,307.2 232.7,304.2 235.4,301.9C238.1,299.5 241.1,295.8 242.1,293.8C243.2,291.7 245.1,286.1 246.4,281.3L248.566,271.294C230.826,270.898 224.5,271 220.8,271L214,271C216.4,274.6 217,277.8 217,281.5C217,285.1 216.2,289.1 215.1,291.5C214.1,293.7 211.3,297.5 208.9,300C206.5,302.5 202,305.8 199,307.3C195.2,309.2 192,310 188.5,310C185.7,310 181.9,309.6 180,309C178.1,308.5 174.5,306.4 172.1,304.3C169.7,302.2 166.9,298.8 165.9,296.8C164.8,294.7 163.7,291.1 163.4,288.8C163,286.4 163.2,282.1 163.9,279.3C164.8,275.1 165.6,273.7 167.7,272.5C170.3,271.2 169.9,271.1 161,271.2C155.8,271.3 148.3,271.5 144.5,271.7Z" style="fill:rgb(171,178,176);fill-rule:nonzero;"/>
        <path id="Path-32" serif:id="Path 32" d="M167,251.7C165.1,251.9 159.1,253 153.7,254C148.4,255.1 142.8,256.7 141.3,257.6C138.7,259 140.8,259.1 166,258.6C181.1,258.2 199.8,257.5 207.5,257C215.2,256.5 224.1,255.7 227.2,255.3C230.3,254.8 232.8,254.4 232.7,254.3C232.6,254.1 227.6,253.4 221.5,252.5C214.4,251.6 203.5,251.1 190.5,251.2C179.5,251.3 168.9,251.5 167,251.7Z" style="fill:rgb(60,32,26);fill-rule:nonzero;"/>
        <path id="Path-33" serif:id="Path 33" d="M412.3,226.5C412.7,227.3 413,228.2 413,228.5C413,228.8 414.7,229 416.7,229L420.5,228.9C415.8,225.9 413.9,225 413.1,225C412.2,225 411.9,225.6 412.3,226.5ZM177.5,226.9L173.5,228.8C180.1,229 181.2,228.5 181.8,227C182.3,225.9 182.4,225 182.1,225C181.8,225 179.7,225.9 177.5,226.9ZM10.3,232C10.3,236.1 10.5,237.9 10.7,236C10.9,234.1 10.9,230.7 10.7,228.5C10.5,226.3 10.3,227.9 10.3,232ZM200.5,223.8C197.2,225.4 193.8,227.4 193,228.4C191.6,229.9 191.7,230.1 193.5,230C194.6,230 197.5,230.3 200,230.6C204.4,231.3 204.5,231.2 205.8,227.9C206.5,226 207.8,223.7 208.6,222.8C210,221.2 209.9,221 208.3,221C207.3,221 203.8,222.3 200.5,223.8ZM385.9,222.8C387,224.3 388.1,226.7 388.4,228.3C388.9,230.5 389.5,231 391.7,230.9C393.3,230.9 396.5,230.5 398.9,230.2L403.4,229.5C396.5,225 392.1,222.9 389.2,221.8L384,220L385.9,222.8ZM338.2,215.7C337.7,217.2 336.9,221.1 336.5,224.5C336,228.4 336.1,232.3 336.9,235.5L338.1,240.5C349.3,237 358.4,235 365.7,233.8C378.5,231.6 378.8,231.5 377.2,229.7C376.3,228.6 373.2,226.3 370.5,224.4C367.7,222.5 360.9,219.2 355.2,217C349.6,214.8 343.7,213 342.1,213C339.9,213 339,213.7 338.2,215.7ZM241.5,216C237.6,217.5 231.8,220.1 228.5,221.8C225.2,223.5 220.7,226.5 218.5,228.4C216.1,230.5 215.1,232 216,232C216.8,232 222,232.7 227.5,233.6C233,234.4 241.7,236.3 246.7,237.8C251.8,239.3 256.2,240.3 256.5,240C256.8,239.8 257.3,235.5 257.6,230.5C258,224.4 257.8,220.3 256.8,217.5C255.6,214 255.1,213.5 252,213.4C250.1,213.3 245.3,214.4 241.5,216ZM100.4,219.5C100.4,226.1 100.5,228.6 100.7,225C100.9,221.5 100.9,216.1 100.7,213C100.5,210 100.4,213 100.4,219.5ZM491.4,219.5C491.4,226.7 491.5,229.4 491.7,225.5C491.9,221.7 491.9,215.9 491.7,212.5C491.5,209.2 491.4,212.4 491.4,219.5Z" style="fill:rgb(60,32,26);fill-rule:nonzero;"/>
        <path id="Path-34" serif:id="Path 34" d="M487,204C484.5,206.2 479.7,209.1 476.2,210.5C472.8,211.9 468.6,213 467,213L464,213C471.5,225 474.8,230.8 476.2,233.5C477.8,236.7 479.6,238.8 481.1,239.2C482.4,239.6 484.9,240 486.5,240C488.1,240 489.9,239.6 490.5,239.2C491.1,238.8 491.5,230.9 491.5,219.2L491.5,200C491.5,200.1 489.5,201.9 487,204ZM102.3,201C102.7,202.4 103,211.5 103,221.3C103,238.7 103,239 105.2,239.8C106.5,240.3 109,240.3 111,239.8C114,239 115.3,237.6 120.5,229.2C123.8,223.9 127.3,218.1 128.2,216.3L130,213C125.7,213 121.8,212 118.6,210.7C115,209.4 110.5,206.5 107.2,203.5C102.4,199.2 101.7,198.8 102.3,201Z" style="fill:rgb(183,166,113);fill-rule:nonzero;"/>
        <path id="Path-35" serif:id="Path 35" d="M90.2,179.6C89.4,181.2 87.4,187.4 85.5,193.5C83.7,199.6 81.3,208.3 80.3,213C78.814,224.175 78.5,225.8 78.5,243.5C78.5,264.6 78.7,265.9 81.4,276C83,281.8 85.4,289 86.7,292C88.1,295.3 88.783,297.25 89.9,296.5C91.017,295.75 91.9,291.9 93.4,287.5C95.5,281.4 97.607,276.502 98.307,266.302C98.807,258.902 100.347,251.691 100.105,246.503C99.901,242.101 100,231.7 99.8,218.5C99.3,197.9 99.3,197.3 96,188C94.2,182.8 93.067,179 92.1,177.6C91.578,176.843 90.9,178 90.2,179.6ZM500.937,178.965C500.037,180.865 498.9,186.3 497.4,191C494.9,198.7 494.6,201.3 494.2,218C493.9,229.3 494.2,239 494.9,243C495.5,246.6 496.4,256 497,264C497.5,272 498.9,282.6 500,287.5C501.2,292.4 502.5,297.2 502.9,298C503.6,299.2 504.3,298.5 506.3,295C507.7,292.5 510.2,285.6 512,279.5C514.2,271.6 515.481,265.23 516.425,255.958C517.333,247.043 517.815,238.837 517.215,230.937C516.615,223.437 513.9,212.7 512.1,205.5C510.4,198.9 507.7,189.4 506.1,184.5C506.1,184.5 504.142,177.492 503.408,176.576C502.675,175.659 500.937,178.965 500.937,178.965Z" style="fill:rgb(109,117,114);fill-rule:nonzero;"/>
        <path id="Path-36" serif:id="Path 36" d="M506.5,174.923C505.983,176.823 507,178.3 509.4,184.8C511.5,190.7 514.8,201.1 516.6,208C518.5,214.9 520.4,224.8 520.9,230C521.4,235.5 521.5,243.7 521,249.5C520.5,255 518.7,265.4 517,272.5C515.3,279.6 512.5,288.9 510.9,293C509.2,297.1 507.043,300.944 506.7,301.8C506.139,303.199 506.6,303.1 511.2,303C514.4,303 518.5,302.3 520.3,301.5C522,300.7 524.9,298.1 526.7,295.8C528.4,293.4 530.8,288.9 531.9,285.7C533.1,282.6 535,279.3 536.2,278.5C537.5,277.7 540.3,277 542.5,277C544.7,277 550.3,277.7 555,278.5C559.7,279.3 565.4,280 567.8,280C570.4,280 572.7,279.4 573.8,278.2C574.8,277.3 576.6,273.6 577.8,270C579,266.4 580.7,259.2 581.6,254C582.5,248.8 583.3,239.3 583.3,233C583.3,224.2 582.9,220.2 581.4,216C579.8,211.4 578.9,210.2 575.7,208.7C573.7,207.8 571.7,207.1 571.4,207.2C571.1,207.4 571.4,211.6 572.1,216.5C572.8,221.4 573.4,230.1 573.4,235.7C573.5,244.7 573.3,246.1 571.3,248.2C570.2,249.4 567.5,251.1 565.3,251.7C563.2,252.4 559.9,253 558,253C556.1,253 552.8,252.5 550.7,252C547.8,251.2 546.8,250.3 546,247.7C545.4,246 544.5,237.5 543.9,229C543.4,220.5 542.3,208.6 541.5,202.5C540.8,196.4 539.7,190.4 539.1,189C538.5,187.6 535.8,184.8 533.2,182.8C530.6,180.8 526,178 523,176.6C520,175.2 515.2,173.7 512.5,173.4C509.7,173.1 507.017,173.023 506.5,174.923ZM74.5,175.3C71.2,176.5 67.2,178.5 65.5,179.6C63.8,180.8 61.908,182.157 60.663,182.82C59.529,183.424 59.268,183.715 58,185C56.812,186.204 56,187.3 54.8,193.2C53.8,197.8 52.8,203.1 52.5,205C52.2,206.9 51.3,216.8 50.6,227C49.8,237.2 48.7,246.7 48.1,248.2C47.3,250.2 45.9,251.3 43.2,252C41.2,252.5 38.1,253 36.5,253C34.9,253 31.7,252.5 29.5,251.8C27.3,251.2 24.5,249.6 23.2,248.4C21.2,246.2 21,245.1 21.1,235.2C21.1,229.3 21.7,220.6 22.3,215.8C23,210.9 23.2,207 22.7,207C22.3,207 20.4,207.8 18.5,208.7C16,210 14.4,211.7 13.3,214.5C12.3,217 11.5,222.7 11.3,230C11,237.4 11.4,245 12.4,251.5C13.2,257 14.9,264.6 16.1,268.5C17.3,272.4 19.4,276.5 20.6,277.7C22.3,279.4 24.2,280 27.2,280C29.6,280 35,279.3 39.2,278.5C43.5,277.7 48.9,277 51.2,277C54,276.9 56.5,277.6 58.2,279C59.9,280.2 61.6,282.9 62.5,285.7C63.4,288.4 65.6,292.6 67.5,295.2C69.5,297.9 72.5,300.7 74.5,301.5C76.4,302.3 78.997,303.095 81.697,303.095C81.697,303.095 88.299,304.64 88,303C87.15,298.333 80.023,282.69 77.9,275C76.274,269.111 75.675,262.958 75.263,256.863C74.812,250.196 75.015,241.932 75.193,235C75.361,228.414 75.168,221.754 76.328,215.269C77.729,207.436 81.655,194.928 83.6,188C84.948,183.198 88,174.2 88,173.7C88,173.3 86.3,173 84.2,173.1C82.2,173.1 77.8,174.1 74.5,175.3Z" style="fill:rgb(198,234,21);fill-rule:nonzero;"/>
        <path id="Path-37" serif:id="Path 37" d="M298,136.5C308.7,136.8 321.6,137.5 326.5,138C331.4,138.6 339.8,139.7 345,140.6C350.2,141.5 359,143.2 364.5,144.5C370,145.8 377.6,148.3 381.5,150C385.4,151.8 390.3,153.7 392.5,154.4C394.7,155.1 399.4,157.4 403,159.5C406.6,161.7 416,168.7 424,175C432,181.4 441.1,189.5 444.3,193C447.4,196.6 452.7,203.1 456,207.5C459.3,211.9 464.5,220.3 467.5,226.3C470.5,232.2 472.6,237 472,237C471.4,237 466.4,235.8 460.7,234.4C455.1,233 447.1,231.1 443,230.3C438.9,229.4 433.4,228.8 430.7,228.9C427.3,229 425,228.4 422.3,226.6C420.2,225.3 416.2,223.3 413.3,222.3C409.3,220.9 407.8,220.8 406.8,221.7C405.8,222.6 406.1,223.6 408.5,226.5C411.2,229.7 411.3,230.1 409.5,230C408.4,230 406,228.6 404.3,227C402.5,225.3 399.3,223.1 397.3,222.1C395.2,221.1 390.9,219.5 387.8,218.6C384.6,217.7 381.6,217.2 381,217.5C380.4,217.8 380,218.4 380,219C380,219.6 381.4,221.8 383,224C384.6,226.2 386,228.7 386,229.5C386,230.3 385.2,231 384.3,231C383.3,230.9 380.5,229 378,226.6C375.5,224.3 370.7,220.9 367.2,219.2C363.8,217.4 357.3,214.6 352.8,213C348.2,211.3 343,210 341.3,210C338.3,210 337.8,210.5 335.9,214.8C334.5,217.8 333.7,221.8 333.6,226C333.6,229.6 333.9,234.5 335.2,241.5L330.4,244.7C327.7,246.5 324.1,249.4 322.3,251.2C320.6,253 318.6,255.7 318.1,257.3C317.5,258.8 317,261.4 317,263C317,265.9 316.9,266 314.3,264.9C312.7,264.3 307.9,263.6 303.5,263.3C298.167,262.967 292.767,263.333 287.3,264.4C282.7,265.3 278.7,265.8 278.3,265.6C277.8,265.4 277.3,263.3 276.9,260.9C276.6,258.5 275.4,255.1 274.1,253.5C272.8,251.8 269.7,248.9 267,247C264.4,245.1 261.5,243.1 260.5,242.5C258.9,241.6 258.8,241 260,236C260.7,233 261.1,227.8 260.8,224.5C260.5,221.2 259.5,216.7 258.4,214.5C256.9,211.3 255.9,210.4 253.5,210.2C251.8,210 246.4,211.3 241.5,213C236.6,214.8 230,217.5 227,219.1C224,220.7 219.1,224 216.3,226.5C213.4,229 210.3,231 209.5,231C208.4,231 208.2,230.4 208.6,228.8C209,227.5 210.3,225.3 211.6,223.8C212.9,222.2 214,220.3 214,219.5C214,218.7 213.4,217.7 212.8,217.4C212.1,217.1 208.1,218 204,219.5C199.9,220.9 194.1,223.8 191.3,226C188.4,228.2 185.6,230 185,230C184.4,230 184,229.7 184,229.3C183.9,228.8 184.9,227.6 186,226.5C187.1,225.4 188.1,223.6 188.1,222.5C188,220.8 187.6,220.6 184.8,221.2C183,221.7 178.3,223.6 174.5,225.5C169.4,228 166.3,228.9 163,228.9C160.5,228.8 155.1,229.4 151,230.3C146.9,231.1 138.8,233 133,234.5C127.2,235.9 122.4,237 122.2,236.8C122,236.6 123.4,233.3 125.2,229.5C127,225.7 131.6,218.2 135.6,213C139.5,207.8 146,199.7 150.1,195C154.2,190.3 160.7,183.8 164.5,180.5C168.4,177.1 174.9,172.2 179,169.4C183.1,166.6 192.8,161.2 200.5,157.3C208.2,153.4 218.1,149.1 222.5,147.7C226.9,146.3 238.4,143.6 248,141.6C257.6,139.6 268.4,137.5 272,137C275.6,136.5 287.3,136.3 298,136.5ZM179.5,159.5C180.3,160.6 181,161.8 181,162.3C181,162.7 180.2,163.4 179.3,163.9C177.7,164.7 176.802,157.834 175.293,154.997C174.315,153.159 178.915,151.13 179.004,153.019C179.092,154.893 178.903,158.627 179.5,159.5Z" style="fill:rgb(183,166,113);"/>
        <path id="Path-38" serif:id="Path 38" d="M445.4,133.8C442.7,134.7 438.4,136.8 436,138.5C433.6,140.1 428.8,145.3 425.3,150C421.3,155.3 418.802,163.451 418.802,165.051C418.802,166.751 420.804,166.883 425.504,171.383C429.204,174.983 436.125,180.367 440.912,185.395C445.831,190.562 455.02,202.386 455.02,202.386C455.02,202.386 461.318,210.188 463.318,210.588C464.818,210.988 469.3,209.7 471.5,209C473.7,208.3 477.1,207 479,206C480.9,205 485,201.6 488.1,198.4C492.3,193.9 494.2,190.9 495.9,186C497.3,181.8 498.1,176.8 498.2,172C498.3,165.7 497.8,163.5 495.3,158C493.4,153.8 490.4,149.6 486.8,146C483.7,143 478.8,139.2 475.9,137.6C472.9,136 468.3,134.1 465.5,133.3C462.8,132.6 458.3,132 455.5,132C452.8,132.1 448.2,132.8 445.4,133.8ZM128,133.6C125,134.4 120.1,136.5 117.1,138.3C114.2,140.1 109.5,144 106.6,147C103.8,150 100.4,154.8 99.1,157.5C97.6,160.7 96.5,165 96.2,169.5C95.8,175 96.2,178.2 98.1,184.5C100.2,191.6 101.1,193.2 106.5,198.6C109.8,201.9 114.7,205.7 117.5,206.9C120.2,208.2 123.8,209.5 125.5,209.7C127.2,210 130.274,210.998 131.578,210.682C133.048,210.324 133.583,210.116 137.063,206.406C139.457,203.852 143.253,198.529 147.422,194.233C150.722,190.833 161.627,179.886 161.627,179.886C161.627,179.886 168.93,172.819 172.305,170.812C174.96,169.233 177.037,168.239 177.037,166.239C177.037,164.139 173.3,155.3 169.2,150C166,145.9 161.2,140.8 158.4,138.8C155.7,136.8 151,134.4 148,133.6C145,132.7 140.5,132 138,132.1C135.5,132.1 131,132.8 128,133.6Z" style="fill:rgb(244,233,191);fill-rule:nonzero;"/>
        <path id="Path-39" serif:id="Path 39" d="M521.8,121.3L516.2,123.5C519.9,126.2 523.6,130.5 526.8,134.8C530.1,139 533.5,144.1 534.5,146C536.2,149.4 536.2,149.5 534.4,150.8C533.3,151.5 531.9,152 531.3,152C530.6,152 530,152.3 530,152.8C530,153.2 531.2,155.5 532.5,158C533.8,160.5 535.9,165 537.1,168C538.2,171 540.5,180.7 542.1,189.5C543.7,198.4 545.6,214.2 546.4,225C547.2,235.7 548.2,245.4 548.7,246.4C549.1,247.4 550.5,248.7 551.8,249.2C553,249.6 555.8,250 558,250C560.2,250 563.6,249.3 565.5,248.5C567.4,247.7 569.5,246 570.2,244.8C570.9,243.2 571.1,239.1 570.7,232C570.4,226.2 569.4,217 568.6,211.5C567.7,206 565.9,195.2 564.5,187.5C563.1,179.8 561,170.3 559.9,166.5C558.8,162.7 556.6,156.9 555.2,153.8C553.2,149.4 551.9,147.9 550,147.6C548.1,147.3 546.2,144.9 542,138C539,133 534.9,126.8 533,124.3C531.1,121.7 529,119.5 528.5,119.4C528,119.2 525,120.1 521.8,121.3ZM61.7,123.5C60,126 56,132.2 53,137.2C50,142.2 46.6,146.7 45.5,147.3C44.4,147.9 42.9,148.6 42.2,148.9C41.4,149.2 39.7,152.2 38.3,155.5C36.9,158.8 34.7,165.6 33.5,170.5C32.2,175.4 29.8,187.8 28.1,198C26.4,208.2 24.6,221.4 24,227.5C23.2,235.4 23.2,239.7 23.9,242.8C24.8,246.2 25.7,247.3 28.5,248.5C30.4,249.3 33.5,250 35.3,250C37,250 40,249.7 41.8,249.3C44.2,248.7 45.3,247.8 46,245.5C46.5,243.8 47.2,237.3 47.5,231C47.9,224.7 48.8,214.1 49.6,207.5C50.4,200.9 52.4,188.8 54.1,180.5C55.8,172.3 57.4,165.3 57.8,165C58.2,164.7 59.9,161.8 61.5,158.6C63.2,155.4 64.1,152.6 63.5,152.4C63,152.2 61.7,151.5 60.6,150.8C59.3,149.9 58.9,148.8 59.3,147C59.6,145.6 63.1,140.3 66.9,135.3C70.8,130.2 75,125.5 76.3,124.9C78.4,123.8 78.3,123.6 73.5,121.4C70.8,120.2 67.7,119.1 66.7,119.1C65.7,119 63.6,121 61.7,123.5Z" style="fill:rgb(232,21,196);fill-rule:nonzero;"/>
        <path id="Path-40" serif:id="Path 40" d="M275.5,117C271.1,117.5 265,118.4 262,118.9C259,119.5 247.7,122.5 237,125.5C226.3,128.5 211.2,133.5 203.5,136.5C195.8,139.6 187.7,143.3 185.6,144.8C183.4,146.3 181.3,148.6 180.9,150C180.5,151.4 180.5,153.8 180.8,155.4C181.2,157 182.2,158.7 183,159.3C184.1,160.1 186.8,159.3 193.5,156.3C198.4,154 205.9,150.8 210,149C214.1,147.2 224.9,144.1 234,142C243.1,139.8 252.8,137.4 255.5,136.5C258.4,135.6 267.5,134.5 277,134C286.1,133.4 299.8,133.3 307.5,133.6C315.2,133.9 324.4,134.6 328,135.1C331.6,135.6 338.3,136.5 343,137C347.7,137.5 354,138.6 357,139.4C360,140.2 365,141.4 368,142C371,142.7 377.8,145 383,147.2C388.6,149.5 393.7,151 395.5,150.8C397.6,150.6 399.1,149.5 400.7,147C402.2,144.9 403,142 403,139.7C403,136.3 402.6,135.8 398.2,133.6C395.6,132.3 390.1,130.1 386,128.7C381.9,127.3 374.4,125.2 369.5,124.1C364.6,123 350.1,120.9 337.5,119.5C324.9,118 307.5,116.7 299,116.5C290.5,116.3 279.9,116.5 275.5,117ZM197,121.5C200.6,125.1 203.7,128 204,128C204.3,128 201.7,125.1 198.3,121.5C194.9,117.9 191.8,115 191.3,115C190.9,115 193.4,117.9 197,121.5Z" style="fill:rgb(60,32,26);fill-rule:nonzero;"/>
        <path id="Path-41" serif:id="Path 41" d="M441.5,95.5C438.2,96.2 431.9,98.1 427.5,99.7C422.7,101.4 417.1,104.5 413.5,107.2C410.2,109.8 403.9,115.3 399.5,119.5L391.5,127.2C400.8,131.7 404.1,133.7 404.8,134.7C405.5,135.7 406,138 406,139.7C406,141.5 405.5,144.2 404.8,145.7C404.2,147.3 402.8,149.4 401.8,150.5C400.1,152.5 400.2,152.6 408.3,158.5L416.5,164.6C418.268,158.382 417.687,158.859 421.435,151.162C423.685,146.541 429.7,139.8 432.1,137.7C434.5,135.6 438.9,133 441.8,132C444.6,130.9 449.4,129.7 452.3,129.4C455.1,129.1 460.2,129.3 463.5,129.9C466.8,130.5 472.4,132.5 476,134.2C479.6,136 485.1,139.9 488.3,143C492.2,146.6 495.3,150.7 497.3,155C499.4,159.3 500.6,163.6 501,167.8L501.5,174.2C505.4,170.9 507.9,169.9 509.5,170C511.1,170 515,170.7 518,171.6C521,172.5 525.3,174.1 527.5,175.2C529.7,176.3 532.7,178.4 534.3,179.9L537,182.5C537,178.6 536.5,175.7 535.9,173.5C535.3,171.3 533.1,165.8 530.9,161.2C528.8,156.7 527.2,152.3 527.5,151.5C527.8,150.7 528.9,149.8 530,149.5C531.1,149.2 532,148.4 532,147.7C532,147.1 529.2,142.7 525.7,138C522.2,133.3 517.7,128.3 515.7,126.7C512,124 511.9,124 507,125.5C504.2,126.3 501.3,127 500.5,127C499.7,127 496.9,125.1 494.4,122.7C491.8,120.4 485.4,113.2 480.1,106.8C472.6,97.7 469.8,94.9 467.5,94.5C465.9,94.2 460.7,94 456,94.1C451.3,94.1 444.8,94.8 441.5,95.5ZM126,94.7C125.2,95 121.1,98.5 117,102.4C112.9,106.3 106.6,112.1 103,115.1C99.4,118.2 95.4,121.4 94,122.3C92.5,123.3 89.187,124.938 86.387,124.938C83.087,124.938 81.1,124.7 78.9,126.2C77.2,127.5 72.7,132.7 68.9,137.7C65.1,142.8 62,147.4 62,148C62,148.6 62.9,149.2 64,149.5C65.1,149.8 66.3,150.8 66.6,151.7C67,152.8 65.6,157 63.2,162C61,166.7 58.8,172.1 58.3,174C57.8,175.9 57.5,178.3 57.7,179.2C58,180.8 58.5,180.7 62.2,178.2C64.6,176.6 69,174.3 72,173.1C75,171.8 79.8,170.5 82.7,170.1C87.3,169.6 88.2,169.8 90.5,172L93.1,174.5C93,167.9 93.8,163.4 94.8,160.2C95.8,157.1 98.2,152.2 100.2,149.5C102.2,146.7 106.4,142.4 109.6,139.8C112.9,137.3 117.5,134.3 120,133.2C122.5,132 127.7,130.6 131.5,130C135.3,129.3 140.8,129.1 143.5,129.4C146.2,129.8 151,131.2 154,132.6C157,134 160.8,136.3 162.5,137.7C164.2,139.1 167.5,142.8 169.9,145.9C172.3,149 174.389,153.593 175.389,155.293C175.389,155.293 177.766,160.55 178.492,159.086C179.294,157.471 178.6,147.7 180.2,145.6C181.5,144 185,141.5 188,140C191,138.5 196.3,136.2 199.8,134.9C203.2,133.6 206,132.1 206,131.5C206,130.9 201.1,125.8 195.2,120C189.3,114.2 182.2,107.9 179.5,106.1C176.7,104.2 171.3,101.4 167.5,99.9C163.7,98.4 157,96.5 152.7,95.6C148.5,94.7 141.1,94 136.2,94.1C131.4,94.1 126.8,94.4 126,94.7Z" style="fill:rgb(183,166,113);fill-rule:nonzero;"/>
        <path id="Path-42" serif:id="Path 42" d="M260.5,17.7C257.2,17.9 248.2,18.7 240.5,19.6C232.8,20.4 221.3,22.2 215,23.6C208.7,24.9 196.7,28.3 188.5,31.1C180.2,33.9 166.7,38.9 158.5,42.2C150.2,45.5 137,51.4 129,55.2C121,59 111.1,64.2 107,66.7C102.9,69.3 96.2,73.8 92.2,76.7C88.3,79.6 80.5,86.2 74.9,91.3C69.4,96.3 63.7,102.4 62.4,104.8C61.1,107.1 60,109.5 60,110C60,110.5 61.7,112.1 63.8,113.4C65.8,114.7 68.969,116.053 70.819,117.091C72.639,118.112 74.068,118.838 74.637,119.071C75.283,119.334 76.078,119.757 77.49,120.37C78.854,120.963 81.595,121.428 83.295,121.828C85.095,122.228 86.962,122.538 89.062,121.638C90.962,120.938 97.5,115.8 102.5,111.4C107.5,107.1 114.2,100.9 117.5,97.6C120.8,94.4 128,88.1 133.5,83.6C139,79.1 146.2,73.7 149.5,71.5C152.8,69.4 158.2,66.4 161.5,64.9C164.8,63.4 173.1,60.3 180,58C186.9,55.7 198.8,52.3 206.5,50.4C214.2,48.5 224.6,46.3 229.5,45.5C234.4,44.7 248.2,43.5 260,42.9C272,42.3 293.9,42 309.5,42.3C327.4,42.6 344,43.6 355.5,44.9C365.4,46 377.6,47.6 382.5,48.4C387.4,49.3 395.1,50.9 399.5,52.1C403.9,53.2 411.1,55.4 415.5,56.9C419.9,58.5 427.1,61.2 431.5,63.1C435.9,64.9 443.6,69.1 448.5,72.3C453.8,75.8 461.4,82.2 467,87.9C472.3,93.2 480.9,102.7 486.1,109C491.4,115.3 496.9,121.3 498.4,122.3C500.9,123.9 501.3,123.9 507.7,122.1C511.5,121.1 516.4,119.3 518.7,118.1C521.1,117 529.7,115.2 531.2,114C532.8,112.9 534,111 534,109.8C534,108.5 532.8,105.7 531.2,103.5C529.6,101.3 525.9,97.3 522.9,94.6C519.9,91.9 513.9,86.9 509.5,83.5C505.1,80 496.1,73.6 489.5,69.3C482.9,64.9 472.6,58.4 466.5,54.9C460.4,51.5 450.6,46.3 444.5,43.4C438.4,40.6 430.1,37 426,35.5C421.9,34.1 412.6,31.3 405.5,29.5C398.4,27.6 384.2,24.5 374,22.6C363.8,20.7 351.1,18.7 345.7,18.1C340.3,17.5 320.6,17.1 301.2,17.2C282.1,17.3 263.8,17.5 260.5,17.7Z" style="fill:rgb(198,234,21);fill-rule:nonzero;"/>
        <path id="Path-43" serif:id="Path 43" d="M295,16.7C301.9,16.9 312.7,16.9 319,16.7C325.3,16.6 319.7,16.4 306.5,16.4C293.3,16.4 288.1,16.6 295,16.7Z" style="fill:rgb(60,32,26);fill-rule:nonzero;"/>
    </g>
</svg>
